<svg width="34" height="34" viewBox="0 0 34 34" fill="none" xmlns="http://www.w3.org/2000/svg">
<path d="M22 12.2678C24.5765 12.2678 27.0473 13.2913 28.869 15.1131C30.6907 16.9349 31.7143 19.4057 31.7143 21.9821C31.7205 23.8943 31.1552 25.7647 30.0914 27.3535L31.7143 31.6964L26.2514 30.7135C24.9376 31.3542 23.4963 31.6902 22.0346 31.6964C20.5729 31.7026 19.1287 31.3787 17.8096 30.7492C16.4904 30.1197 15.3304 29.2004 14.4158 28.0603C13.5012 26.9202 12.8557 25.5883 12.5275 24.1638C12.1992 22.7396 12.1965 21.2595 12.5198 19.834C12.843 18.4085 13.4837 17.0744 14.3942 15.9309C15.3047 14.7875 16.4615 13.8642 17.7784 13.23C19.0953 12.5958 20.5384 12.2669 22 12.2678Z" stroke="black" stroke-width="3" stroke-linecap="round" stroke-linejoin="round"/>
<path d="M23.3943 6.57652C21.8551 4.61782 19.7434 3.18783 17.3532 2.48565C14.9631 1.78346 12.4134 1.84403 10.0593 2.65891C7.70524 3.4738 5.66382 5.00244 4.21927 7.03202C2.77474 9.06157 1.999 11.4911 2.00005 13.9822C1.99297 16.3502 2.69339 18.6664 4.01147 20.6337L2.00005 25.9821L6.84576 25.1136" stroke="black" stroke-width="3" stroke-linecap="round" stroke-linejoin="round"/>
</svg>
