<svg width="40" height="39" viewBox="0 0 40 39" fill="none" xmlns="http://www.w3.org/2000/svg">
<path d="M19.2443 6.61931C21.1135 4.75011 23.6487 3.7 26.2922 3.7C28.9356 3.7 31.4708 4.75011 33.34 6.61931C35.2091 8.48852 36.2594 11.0237 36.2594 13.6672C36.2594 16.3106 35.2091 18.8458 33.34 20.715L21.265 32.79C19.3958 34.6591 16.8606 35.7094 14.2172 35.7094C11.5737 35.7094 9.03852 34.6591 7.16931 32.79C5.30011 30.9208 4.25 28.3856 4.25 25.7422C4.25 23.0987 5.30011 20.5635 7.16931 18.6943L19.2443 6.61931Z" stroke="black" stroke-width="4" stroke-linecap="round" stroke-linejoin="round"/>
<path d="M13.8223 12.0404L27.918 26.1361" stroke="black" stroke-width="4" stroke-linecap="round" stroke-linejoin="round"/>
</svg>
