<svg width="22" height="24" viewBox="0 0 22 24" fill="none" xmlns="http://www.w3.org/2000/svg">
<path d="M14.5 11.4C14.5 12.3282 14.1312 13.2185 13.4749 13.8749C12.8185 14.5312 11.9283 14.9 11 14.9C10.0717 14.9 9.1815 14.5312 8.52512 13.8749C7.86875 13.2185 7.5 12.3282 7.5 11.4V6.5C7.5 5.57174 7.86875 4.6815 8.52512 4.02512C9.1815 3.36875 10.0717 3 11 3C11.9283 3 12.8185 3.36875 13.4749 4.02512C14.1312 4.6815 14.5 5.57174 14.5 6.5V11.4Z" stroke="black" stroke-width="2" stroke-linecap="round" stroke-linejoin="round"/>
<path d="M18 12.1C18.0018 12.9278 17.8401 13.7479 17.5243 14.5131C17.2083 15.2783 16.7443 15.9735 16.1588 16.5588C15.5735 17.1442 14.8783 17.6083 14.1131 17.9241C13.3479 18.2401 12.5279 18.4018 11.7 18.4H10.3C9.47216 18.4018 8.65211 18.2401 7.88693 17.9241C7.12175 17.6083 6.42651 17.1442 5.84113 16.5588C5.25574 15.9735 4.79177 15.2783 4.47582 14.5131C4.15987 13.7479 3.99817 12.9278 4.00002 12.1" stroke="black" stroke-width="2" stroke-linecap="round" stroke-linejoin="round"/>
<path d="M11 18.4V21.2" stroke="black" stroke-width="2" stroke-linecap="round" stroke-linejoin="round"/>
</svg>
